<svg width="295" height="79" viewBox="0 0 295 79" fill="none" xmlns="http://www.w3.org/2000/svg">
<path d="M249.543 44.0626C250.184 39.6991 253.027 35.2 256.977 33.1913C257.345 33.0037 257.735 32.8283 258.134 32.6698C260.361 31.7872 262.78 31.5042 265.132 31.8498C272.135 32.8792 277.243 39.2133 276.76 46.2692L276.748 46.9453L277.413 47.0192C284.729 48.0977 289.965 55.4246 288.848 63.0223C287.731 70.6215 280.604 76.1336 273.285 75.0579C270.213 74.6062 267.686 73.352 265.806 71.1105L265.618 71.0168L264.913 70.9132L264.638 70.9657C263.15 71.8063 260.059 73.4991 255.642 72.8499C252.399 72.3732 250.319 70.9898 247.963 67.8199L247.555 67.2556L246.996 67.6448C244.271 69.5741 240.99 70.3194 237.509 69.8077C230.063 68.7133 224.892 61.7987 225.98 54.3957C226.285 52.3225 227.053 50.3841 228.261 48.6364C228.476 48.3249 228.708 48.0166 228.952 47.7208C232.027 43.9876 236.657 42.1686 241.418 42.8684C242.577 43.0388 244.004 43.4074 244.713 43.8064L244.924 42.3689C244.211 41.9977 242.777 41.6488 241.623 41.479C236.371 40.7071 231.235 42.7081 227.843 46.824C227.574 47.1498 227.33 47.4917 227.092 47.8352C225.761 49.7628 224.92 51.9008 224.584 54.1897C223.383 62.3585 229.09 69.9881 237.301 71.195C240.913 71.7258 244.336 71.0238 247.245 69.1646C249.673 72.2574 252.02 73.6809 255.446 74.1845C260.055 74.862 263.323 73.2081 265.044 72.2476C267.096 74.5266 269.865 75.9753 273.08 76.4479C281.152 77.6344 289.009 71.5801 290.236 63.2272C291.435 55.0757 285.957 47.2042 278.19 45.7263C278.383 38.2032 272.848 31.5645 265.334 30.4601C262.739 30.0787 260.07 30.3911 257.615 31.3645C257.175 31.5384 256.745 31.7317 256.338 31.9398C251.983 34.1546 248.858 39.0459 248.151 43.8588C248.148 43.8798 248.153 43.8591 248.15 43.8802" fill="white"/>
<path d="M253.353 20.1396L257.649 16.9442C257.946 16.7238 258.007 16.3045 257.786 16.008C257.566 15.7115 257.147 15.6499 256.85 15.8703L252.554 19.0657C252.257 19.2861 252.195 19.7054 252.417 20.002C252.636 20.2984 253.056 20.36 253.353 20.1396Z" fill="white"/>
<path d="M206.513 30.9578L197.834 29.8708C197.471 29.8306 197.143 30.0887 197.096 30.451C197.048 30.8217 197.314 31.1601 197.685 31.2017L206.365 32.2879C206.728 32.3289 207.056 32.0708 207.103 31.7085C207.151 31.3379 206.885 30.9995 206.513 30.9578Z" fill="white"/>
<path d="M235.853 10.0879C236.219 10.1417 236.648 9.90156 236.701 9.53637L237.973 0.88291C238.027 0.516964 237.685 0.16424 237.319 0.11045C236.953 0.056661 236.524 0.296063 236.47 0.662009L235.198 9.31547C235.145 9.68066 235.487 10.0341 235.853 10.0879Z" fill="white"/>
<path d="M211.87 50.1575C211.649 49.861 211.23 49.7994 210.933 50.0199L206.637 53.2152C206.34 53.4356 206.278 53.8549 206.499 54.1522C206.72 54.4487 207.139 54.5104 207.435 54.2899L211.732 51.0938C212.028 50.8732 212.089 50.4539 211.87 50.1575Z" fill="white"/>
<path d="M216.129 14.6681C216.349 14.9646 216.769 15.0262 217.065 14.8057C217.362 14.5852 217.423 14.1659 217.203 13.8695L214.007 9.573C213.787 9.27651 213.368 9.21488 213.071 9.43538C212.775 9.65587 212.713 10.0752 212.934 10.3717L216.129 14.6681Z" fill="white"/>
<path d="M247.035 24.0042C241.184 16.1378 230.253 14.2463 222.126 19.4677L222.819 20.4003C226.449 18.0919 230.659 17.2699 234.674 17.8601C239.085 18.5084 243.25 20.8363 246.115 24.6881C247.155 26.0877 247.951 27.5934 248.514 29.1546L249.446 28.3804C248.856 26.8544 248.057 25.3805 247.035 24.0042Z" fill="white"/>
<path d="M218.171 45.4713C212.71 38.129 213.932 27.873 220.726 21.9642L220.031 21.0299C212.729 27.3177 211.412 38.3044 217.251 46.1553C218.692 48.0936 220.446 49.6656 222.387 50.8621L223.317 50.0899C221.364 48.9453 219.604 47.3994 218.171 45.4713Z" fill="white"/>
<path d="M21.856 55.024L16.448 41.2L10.528 55.088L1.312 30.96H4.928L10.912 47.792L14.912 37.296L12.448 30.96H15.52L21.952 47.44L27.648 30.96H30.976L21.856 55.024ZM38.05 51.76C39.1593 51.76 40.2367 51.376 41.282 50.608L42.658 52.816C41.954 53.2853 41.186 53.6587 40.354 53.936C39.5433 54.192 38.754 54.32 37.986 54.32C36.514 54.32 35.2233 54.0213 34.114 53.424C33.026 52.8053 32.1833 51.9627 31.586 50.896C30.9887 49.8293 30.69 48.624 30.69 47.28C30.69 45.9787 31.01 44.7947 31.65 43.728C32.3113 42.64 33.2073 41.7867 34.338 41.168C35.4687 40.528 36.706 40.208 38.05 40.208C39.778 40.208 41.218 40.72 42.37 41.744C43.5433 42.7467 44.3433 44.1547 44.77 45.968L34.274 49.648C34.658 50.3093 35.17 50.832 35.81 51.216C36.4713 51.5787 37.218 51.76 38.05 51.76ZM37.826 42.576C36.61 42.576 35.6073 43.0027 34.818 43.856C34.0287 44.7093 33.634 45.7973 33.634 47.12C33.634 47.44 33.6447 47.6853 33.666 47.856L41.378 45.008C41.058 44.2827 40.5993 43.696 40.002 43.248C39.426 42.8 38.7007 42.576 37.826 42.576ZM62.067 40.752V54H59.091V51.824C58.6217 52.4427 57.939 53.0187 57.043 53.552C56.147 54.064 55.1337 54.32 54.003 54.32C52.7443 54.32 51.603 54.0533 50.579 53.52C49.5763 52.9653 48.7763 52.1653 48.179 51.12C47.603 50.0747 47.315 48.8267 47.315 47.376C47.315 45.9253 47.6137 44.6667 48.211 43.6C48.8297 42.512 49.651 41.68 50.675 41.104C51.7203 40.5067 52.8723 40.208 54.131 40.208C55.2617 40.208 56.243 40.4533 57.075 40.944C57.907 41.4347 58.579 42.0747 59.091 42.864L59.315 40.752H62.067ZM54.803 51.856C55.891 51.856 56.819 51.5573 57.587 50.96C58.3763 50.3413 58.8777 49.5093 59.091 48.464V45.84C58.835 44.9013 58.3017 44.144 57.491 43.568C56.6803 42.9707 55.7523 42.672 54.707 42.672C53.9177 42.672 53.1817 42.864 52.499 43.248C51.8377 43.632 51.3043 44.176 50.899 44.88C50.515 45.5627 50.323 46.3413 50.323 47.216C50.323 48.0693 50.5257 48.848 50.931 49.552C51.3363 50.256 51.8803 50.8213 52.563 51.248C53.2457 51.6533 53.9923 51.856 54.803 51.856ZM71.5363 34.928V40.784H75.1523V43.152H71.5363V54H68.5283V43.152H66.0963V40.784H68.5283V34.928H71.5363ZM87.0035 40.24C88.2408 40.24 89.2648 40.6133 90.0755 41.36C90.8862 42.0853 91.3022 43.0347 91.3235 44.208V54H88.3155V45.232C88.2728 44.4853 88.0488 43.8987 87.6435 43.472C87.2382 43.0453 86.6302 42.8213 85.8195 42.8C85.0515 42.8 84.3582 43.0133 83.7395 43.44C83.1208 43.8667 82.6302 44.464 82.2675 45.232C81.9262 46 81.7555 46.8533 81.7555 47.792V54H78.7795V29.2H81.6915V43.152C82.1822 42.2773 82.8862 41.5733 83.8035 41.04C84.7422 40.5067 85.8088 40.24 87.0035 40.24ZM102.675 51.76C103.784 51.76 104.862 51.376 105.907 50.608L107.283 52.816C106.579 53.2853 105.811 53.6587 104.979 53.936C104.168 54.192 103.379 54.32 102.611 54.32C101.139 54.32 99.8483 54.0213 98.739 53.424C97.651 52.8053 96.8083 51.9627 96.211 50.896C95.6137 49.8293 95.315 48.624 95.315 47.28C95.315 45.9787 95.635 44.7947 96.275 43.728C96.9363 42.64 97.8323 41.7867 98.963 41.168C100.094 40.528 101.331 40.208 102.675 40.208C104.403 40.208 105.843 40.72 106.995 41.744C108.168 42.7467 108.968 44.1547 109.395 45.968L98.899 49.648C99.283 50.3093 99.795 50.832 100.435 51.216C101.096 51.5787 101.843 51.76 102.675 51.76ZM102.451 42.576C101.235 42.576 100.232 43.0027 99.443 43.856C98.6537 44.7093 98.259 45.7973 98.259 47.12C98.259 47.44 98.2697 47.6853 98.291 47.856L106.003 45.008C105.683 44.2827 105.224 43.696 104.627 43.248C104.051 42.8 103.326 42.576 102.451 42.576ZM115.972 43.888C116.313 43.1627 116.793 42.5227 117.412 41.968C118.052 41.4133 118.724 40.9867 119.428 40.688C120.132 40.3893 120.751 40.2293 121.284 40.208L121.156 43.184C120.196 43.1413 119.321 43.3333 118.532 43.76C117.764 44.1867 117.156 44.784 116.708 45.552C116.281 46.2987 116.068 47.0987 116.068 47.952V54H113.092V40.752H115.748L115.972 43.888ZM148.112 47.92H139.216L136.752 54H133.68L143.792 29.904H143.984L154.096 54H150.512L148.112 47.92ZM147.056 45.232L143.76 36.784L140.336 45.232H147.056ZM166.07 40.208C167.307 40.208 168.427 40.5067 169.43 41.104C170.432 41.7013 171.222 42.544 171.798 43.632C172.374 44.6987 172.662 45.936 172.662 47.344C172.662 48.7307 172.352 49.9573 171.734 51.024C171.115 52.0693 170.262 52.88 169.174 53.456C168.086 54.032 166.87 54.32 165.526 54.32C164.566 54.32 163.648 54.1173 162.774 53.712C161.899 53.2853 161.195 52.72 160.662 52.016V60.368H157.686V40.528H160.278L160.534 42.768C161.216 42 162.027 41.3813 162.966 40.912C163.926 40.4427 164.96 40.208 166.07 40.208ZM164.95 51.92C165.782 51.92 166.55 51.728 167.254 51.344C167.979 50.9387 168.555 50.3947 168.982 49.712C169.408 49.008 169.622 48.2293 169.622 47.376C169.622 46.5013 169.419 45.712 169.014 45.008C168.63 44.304 168.096 43.7493 167.414 43.344C166.731 42.9387 165.974 42.736 165.142 42.736C164.011 42.736 163.04 43.056 162.23 43.696C161.44 44.3147 160.918 45.1573 160.662 46.224V48.432C160.832 49.456 161.312 50.2987 162.102 50.96C162.912 51.6 163.862 51.92 164.95 51.92ZM185.039 40.208C186.276 40.208 187.396 40.5067 188.399 41.104C189.401 41.7013 190.191 42.544 190.767 43.632C191.343 44.6987 191.631 45.936 191.631 47.344C191.631 48.7307 191.321 49.9573 190.703 51.024C190.084 52.0693 189.231 52.88 188.143 53.456C187.055 54.032 185.839 54.32 184.495 54.32C183.535 54.32 182.617 54.1173 181.743 53.712C180.868 53.2853 180.164 52.72 179.631 52.016V60.368H176.655V40.528H179.247L179.503 42.768C180.185 42 180.996 41.3813 181.935 40.912C182.895 40.4427 183.929 40.208 185.039 40.208ZM183.919 51.92C184.751 51.92 185.519 51.728 186.223 51.344C186.948 50.9387 187.524 50.3947 187.951 49.712C188.377 49.008 188.591 48.2293 188.591 47.376C188.591 46.5013 188.388 45.712 187.983 45.008C187.599 44.304 187.065 43.7493 186.383 43.344C185.7 42.9387 184.943 42.736 184.111 42.736C182.98 42.736 182.009 43.056 181.199 43.696C180.409 44.3147 179.887 45.1573 179.631 46.224V48.432C179.801 49.456 180.281 50.2987 181.071 50.96C181.881 51.6 182.831 51.92 183.919 51.92Z" fill="white"/>
</svg>
