<svg width="312" height="64" viewBox="0 0 312 64" fill="none" xmlns="http://www.w3.org/2000/svg">
<path d="M37.0079 41.152L30.9239 25.6L24.2639 41.224L13.8959 14.08H17.9639L24.6959 33.016L29.1959 21.208L26.4239 14.08H29.8799L37.1159 32.62L43.5239 14.08H47.2679L37.0079 41.152ZM55.2262 37.48C56.4742 37.48 57.6862 37.048 58.8622 36.184L60.4102 38.668C59.6182 39.196 58.7542 39.616 57.8182 39.928C56.9062 40.216 56.0182 40.36 55.1542 40.36C53.4982 40.36 52.0462 40.024 50.7982 39.352C49.5742 38.656 48.6262 37.708 47.9542 36.508C47.2822 35.308 46.9462 33.952 46.9462 32.44C46.9462 30.976 47.3062 29.644 48.0262 28.444C48.7702 27.22 49.7782 26.26 51.0502 25.564C52.3222 24.844 53.7142 24.484 55.2262 24.484C57.1702 24.484 58.7902 25.06 60.0862 26.212C61.4062 27.34 62.3062 28.924 62.7862 30.964L50.9782 35.104C51.4102 35.848 51.9862 36.436 52.7062 36.868C53.4502 37.276 54.2902 37.48 55.2262 37.48ZM54.9742 27.148C53.6062 27.148 52.4782 27.628 51.5902 28.588C50.7022 29.548 50.2582 30.772 50.2582 32.26C50.2582 32.62 50.2702 32.896 50.2942 33.088L58.9702 29.884C58.6102 29.068 58.0942 28.408 57.4222 27.904C56.7742 27.4 55.9582 27.148 54.9742 27.148ZM82.2453 25.096V40H78.8973V37.552C78.3693 38.248 77.6013 38.896 76.5933 39.496C75.5853 40.072 74.4453 40.36 73.1733 40.36C71.7573 40.36 70.4733 40.06 69.3213 39.46C68.1933 38.836 67.2933 37.936 66.6213 36.76C65.9733 35.584 65.6493 34.18 65.6493 32.548C65.6493 30.916 65.9853 29.5 66.6573 28.3C67.3533 27.076 68.2773 26.14 69.4293 25.492C70.6053 24.82 71.9013 24.484 73.3173 24.484C74.5893 24.484 75.6933 24.76 76.6293 25.312C77.5653 25.864 78.3213 26.584 78.8973 27.472L79.1493 25.096H82.2453ZM74.0733 37.588C75.2973 37.588 76.3413 37.252 77.2053 36.58C78.0933 35.884 78.6573 34.948 78.8973 33.772V30.82C78.6093 29.764 78.0093 28.912 77.0973 28.264C76.1853 27.592 75.1413 27.256 73.9653 27.256C73.0773 27.256 72.2493 27.472 71.4813 27.904C70.7373 28.336 70.1373 28.948 69.6813 29.74C69.2493 30.508 69.0333 31.384 69.0333 32.368C69.0333 33.328 69.2613 34.204 69.7173 34.996C70.1733 35.788 70.7853 36.424 71.5533 36.904C72.3213 37.36 73.1613 37.588 74.0733 37.588ZM92.8982 18.544V25.132H96.9662V27.796H92.8982V40H89.5142V27.796H86.7782V25.132H89.5142V18.544H92.8982ZM110.299 24.52C111.691 24.52 112.843 24.94 113.755 25.78C114.667 26.596 115.135 27.664 115.159 28.984V40H111.775V30.136C111.727 29.296 111.475 28.636 111.019 28.156C110.563 27.676 109.879 27.424 108.967 27.4C108.103 27.4 107.323 27.64 106.627 28.12C105.931 28.6 105.379 29.272 104.971 30.136C104.587 31 104.395 31.96 104.395 33.016V40H101.047V12.1H104.323V27.796C104.875 26.812 105.667 26.02 106.699 25.42C107.755 24.82 108.955 24.52 110.299 24.52ZM127.929 37.48C129.177 37.48 130.389 37.048 131.565 36.184L133.113 38.668C132.321 39.196 131.457 39.616 130.521 39.928C129.609 40.216 128.721 40.36 127.857 40.36C126.201 40.36 124.749 40.024 123.501 39.352C122.277 38.656 121.329 37.708 120.657 36.508C119.985 35.308 119.649 33.952 119.649 32.44C119.649 30.976 120.009 29.644 120.729 28.444C121.473 27.22 122.481 26.26 123.753 25.564C125.025 24.844 126.417 24.484 127.929 24.484C129.873 24.484 131.493 25.06 132.789 26.212C134.109 27.34 135.009 28.924 135.489 30.964L123.681 35.104C124.113 35.848 124.689 36.436 125.409 36.868C126.153 37.276 126.993 37.48 127.929 37.48ZM127.677 27.148C126.309 27.148 125.181 27.628 124.293 28.588C123.405 29.548 122.961 30.772 122.961 32.26C122.961 32.62 122.973 32.896 122.997 33.088L131.673 29.884C131.313 29.068 130.797 28.408 130.125 27.904C129.477 27.4 128.661 27.148 127.677 27.148ZM142.888 28.624C143.272 27.808 143.812 27.088 144.508 26.464C145.228 25.84 145.984 25.36 146.776 25.024C147.568 24.688 148.264 24.508 148.864 24.484L148.72 27.832C147.64 27.784 146.656 28 145.768 28.48C144.904 28.96 144.22 29.632 143.716 30.496C143.236 31.336 142.996 32.236 142.996 33.196V40H139.648V25.096H142.636L142.888 28.624ZM179.046 33.16H169.038L166.266 40H162.81L174.186 12.892H174.402L185.778 40H181.746L179.046 33.16ZM177.858 30.136L174.15 20.632L170.298 30.136H177.858ZM199.248 24.484C200.64 24.484 201.9 24.82 203.028 25.492C204.156 26.164 205.044 27.112 205.692 28.336C206.34 29.536 206.664 30.928 206.664 32.512C206.664 34.072 206.316 35.452 205.62 36.652C204.924 37.828 203.964 38.74 202.74 39.388C201.516 40.036 200.148 40.36 198.636 40.36C197.556 40.36 196.524 40.132 195.54 39.676C194.556 39.196 193.764 38.56 193.164 37.768V47.164H189.816V24.844H192.732L193.02 27.364C193.788 26.5 194.7 25.804 195.756 25.276C196.836 24.748 198 24.484 199.248 24.484ZM197.988 37.66C198.924 37.66 199.788 37.444 200.58 37.012C201.396 36.556 202.044 35.944 202.524 35.176C203.004 34.384 203.244 33.508 203.244 32.548C203.244 31.564 203.016 30.676 202.56 29.884C202.128 29.092 201.528 28.468 200.76 28.012C199.992 27.556 199.14 27.328 198.204 27.328C196.932 27.328 195.84 27.688 194.928 28.408C194.04 29.104 193.452 30.052 193.164 31.252V33.736C193.356 34.888 193.896 35.836 194.784 36.58C195.696 37.3 196.764 37.66 197.988 37.66ZM220.588 24.484C221.98 24.484 223.24 24.82 224.368 25.492C225.496 26.164 226.384 27.112 227.032 28.336C227.68 29.536 228.004 30.928 228.004 32.512C228.004 34.072 227.656 35.452 226.96 36.652C226.264 37.828 225.304 38.74 224.08 39.388C222.856 40.036 221.488 40.36 219.976 40.36C218.896 40.36 217.864 40.132 216.88 39.676C215.896 39.196 215.104 38.56 214.504 37.768V47.164H211.156V24.844H214.072L214.36 27.364C215.128 26.5 216.04 25.804 217.096 25.276C218.176 24.748 219.34 24.484 220.588 24.484ZM219.328 37.66C220.264 37.66 221.128 37.444 221.92 37.012C222.736 36.556 223.384 35.944 223.864 35.176C224.344 34.384 224.584 33.508 224.584 32.548C224.584 31.564 224.356 30.676 223.9 29.884C223.468 29.092 222.868 28.468 222.1 28.012C221.332 27.556 220.48 27.328 219.544 27.328C218.272 27.328 217.18 27.688 216.268 28.408C215.38 29.104 214.792 30.052 214.504 31.252V33.736C214.696 34.888 215.236 35.836 216.124 36.58C217.036 37.3 218.104 37.66 219.328 37.66Z" fill="white"/>
<circle cx="280" cy="32" r="32" fill="url(#paint0_linear)"/>
<path d="M278.5 10.0833C275.819 10.0833 273.164 10.6114 270.687 11.6375C268.21 12.6635 265.959 14.1674 264.063 16.0632C260.234 19.8921 258.083 25.0852 258.083 30.5C258.083 31.0415 258.298 31.5608 258.681 31.9437C259.064 32.3266 259.583 32.5417 260.125 32.5417H276.458V44.7917C276.458 46.4161 277.104 47.974 278.252 49.1227C279.401 50.2714 280.959 50.9167 282.583 50.9167C284.208 50.9167 285.766 50.2714 286.914 49.1227C288.063 47.974 288.708 46.4161 288.708 44.7917C288.708 44.2502 288.493 43.7309 288.11 43.348C287.727 42.9651 287.208 42.75 286.667 42.75C286.125 42.75 285.606 42.9651 285.223 43.348C284.84 43.7309 284.625 44.2502 284.625 44.7917C284.625 45.3332 284.41 45.8525 284.027 46.2354C283.644 46.6182 283.125 46.8333 282.583 46.8333C282.042 46.8333 281.522 46.6182 281.14 46.2354C280.757 45.8525 280.542 45.3332 280.542 44.7917V32.5417H296.875C297.416 32.5417 297.936 32.3266 298.319 31.9437C298.702 31.5608 298.917 31.0415 298.917 30.5C298.917 27.8189 298.389 25.164 297.362 22.6869C296.336 20.2098 294.833 17.9591 292.937 16.0632C291.041 14.1674 288.79 12.6635 286.313 11.6375C283.836 10.6114 281.181 10.0833 278.5 10.0833V10.0833ZM262.289 28.4583C262.776 24.5022 264.694 20.8607 267.679 18.22C270.665 15.5793 274.514 14.1217 278.5 14.1217C282.486 14.1217 286.335 15.5793 289.32 18.22C292.306 20.8607 294.224 24.5022 294.711 28.4583H262.289Z" fill="white"/>
<defs>
<linearGradient id="paint0_linear" x1="280" y1="0" x2="280" y2="64" gradientUnits="userSpaceOnUse">
<stop stop-color="#355C7D"/>
<stop offset="0.682292" stop-color="#6C5B7B"/>
</linearGradient>
</defs>
</svg>
